<svg xmlns="http://www.w3.org/2000/svg" viewBox="0 0 128 128" id="forest"><g fill="#9C3"><path d="m64 64 64 32-64 32L0 96z"></path><path d="m64 64 64 32-64 32L0 96z"></path></g><ellipse cx="70.5" cy="80" opacity=".3" rx="7.5" ry="4"></ellipse><path fill="#825012" d="M69 53v27c0 .6.7 1 1.5 1s1.5-.4 1.5-1V53h-3z"></path><circle cx="63.5" cy="48.5" r="6.5" fill="#539B00"></circle><circle cx="68" cy="40" r="9" fill="#539B00"></circle><path fill="#825012" d="M71 68.4c2.6 0 3-.9 3-3.4v-8h1v10c0 1.7-1.3 3-3 3h-1v-1.6zM71 67.8c-1.7 0-3-.4-3-2.1V56h-1v10c0 1.7 1.3 3 3 3h1v-1.2zM69 46.8c-1.7 0-3-.4-3-2.1V42h-1v3c0 1.7 1.3 3 3 3h1v-1.2z"></path><circle cx="75.5" cy="55.5" r="7.5" fill="#539B00"></circle><circle cx="80" cy="52" r="6" fill="#539B00"></circle><path fill="#825012" d="M75 54.8c1.7 0 3-.4 3-2.1V50h1v3c0 1.7-1.3 3-3 3h-1v-1.2zM68 39.4h1V49h-1z"></path><circle cx="77" cy="42" r="8" fill="#539B00"></circle><circle cx="72" cy="33" r="8" fill="#539B00"></circle><path fill="#FFF" d="M72.5 41c2.2 0 4.1 1.3 4.9 3.1.3-.1.7-.1 1.1-.1 1.8 0 3.4.9 4.4 2.2-.4-1.8-2-3.2-3.9-3.2h-.1c-.5-2.3-2.5-4-4.9-4-2 0-3.7 1.2-4.5 2.9.8-.6 1.9-.9 3-.9z" opacity=".2"></path><circle cx="63" cy="40.4" r="3.6" fill="#539B00"></circle><path fill="#FFF" d="M63 40.5c0-2.5 1.7-4.6 4-5.3.2-2.9 2.5-5.2 5.5-5.2 1.7 0 3.3.8 4.3 2.1-.6-2.4-2.8-4.1-5.3-4.1-2.9 0-5.3 2.2-5.5 5.1-2.3.5-4 2.5-4 4.9 0 1.1.4 2.2 1 3v-.5z" opacity=".2"></path><circle cx="68.3" cy="55.8" r="9.3" fill="#539B00"></circle><circle cx="80.3" cy="49.8" r="3.3" fill="#539B00"></circle><path d="M86 52c0-.4 0-.8-.1-1.2-.6 3.8-3.9 6.7-7.9 6.7h-.4c.7.3 1.6.5 2.4.5.7 0 1.3-.1 1.9-.3-1.4 1.4-3.3 2.3-5.4 2.3-1 0-2-.2-2.9-.6C72 61 69.7 62 67.3 62c-3.5 0-6.6-2-8.1-4.8.7 4.4 4.5 7.8 9.1 7.8 2.2 0 4.3-.8 5.9-2.1.4.1.8.1 1.3.1 3.5 0 6.5-2.4 7.3-5.7 1.9-1 3.2-3 3.2-5.3z" opacity=".3"></path><path fill="#FFF" d="M65.5 51c.8 0 1.5.1 2.2.4.9-1.4 2.5-2.4 4.3-2.4 1 0 1.9.3 2.7.8-.7-1.7-2.3-2.8-4.2-2.8-1.6 0-3 .8-3.8 2H66c-2.9 0-5.4 2.1-5.9 4.9 1.2-1.8 3.2-2.9 5.4-2.9z" opacity=".2"></path><path d="M61 51.5c-1.9-.8-3.4-2.4-3.9-4.5-.1.5-.2 1-.2 1.5 0 2.4 1.3 4.4 3.2 5.6.2-.9.5-1.8.9-2.6z" opacity=".3"></path><ellipse cx="42.5" cy="93" opacity=".3" rx="7.5" ry="4"></ellipse><path fill="#825012" d="M44 69v24c0 .6-.7 1-1.5 1s-1.5-.4-1.5-1V69h3z"></path><circle cx="51.5" cy="67.5" r="6.5" fill="#539B00"></circle><circle cx="48" cy="59" r="9" fill="#539B00"></circle><path fill="#825012" d="M42 81.4c-2.6 0-3-.9-3-3.4v-8h-1v10c0 1.7 1.3 3 3 3h1v-1.6zM43 82.8c1.7 0 3-.4 3-2.1V71h1v10c0 1.7-1.3 3-3 3h-1v-1.2z"></path><path fill="#825012" d="M39 79.8c-1.7 0-2-1.3-2-2.1V68h-1v10c0 1.7 1.3 3 3 3v-1.2z"></path><circle cx="38" cy="69" r="9" fill="#539B00"></circle><circle cx="33" cy="65" r="6" fill="#539B00"></circle><path fill="#825012" d="M38 68.8c-1.7 0-3-.4-3-2.1V64h-1v3c0 1.7 1.3 3 3 3h1v-1.2z"></path><circle cx="37" cy="57" r="8" fill="#539B00"></circle><circle cx="41" cy="53" r="8" fill="#539B00"></circle><circle cx="47.5" cy="50.5" r="4.5" fill="#539B00"></circle><path fill="#FFF" d="M33.1 59c2.2 0 4.1 1.3 4.9 3.1.3-.1.7-.1 1.1-.1 1.8 0 3.4.9 4.4 2.2-.4-1.8-2-3.2-3.9-3.2h-.1c-.5-2.3-2.5-4-4.9-4-2 0-3.7 1.2-4.5 2.9.8-.6 1.9-.9 3-.9z" opacity=".2"></path><path fill="#825012" d="M41 56.4c.2.2.5.4.7.6h.3v-3c-.3 0-.7-.1-1-.2v2.6z"></path><path fill="#FFF" d="M41.5 49c2.4 0 4.3 1.9 4.5 4.2.5-.1 1-.2 1.5-.2 2.5 0 4.6 1.6 5.3 3.9.1-.4.2-.9.2-1.4 0-2.5-2-4.5-4.5-4.5-.5 0-1 .1-1.5.3-.1-1.8-1.6-3.3-3.5-3.3-1 0-1.9.4-2.5 1h.5z" opacity=".2"></path><path d="M56.9 60.4c-1.7 1.9-4.1 3.1-6.8 3.1h-.6c1 1.1 1.6 2.4 1.7 3.9 2.9-1.1 5.2-3.8 5.7-7zM54.5 70.7c.3.7.4 1.5.5 2.3 1.7-1.1 2.9-2.9 3-5-.8 1.3-2.1 2.2-3.5 2.7zM32.7 59c-1.6-1.4-2.7-3.5-2.7-5.9-.6 1.1-1 2.5-1 3.9 0 1.1.2 2.1.6 3.1.9-.7 2-1 3.1-1.1z" opacity=".3"></path><path fill="#825012" d="M48 60.6c0 1.7-1.3 2.1-3 2.1V64h1c1.7 0 3-1.3 3-3v-2c-.3 0-.7-.1-1-.2v1.8z"></path><circle cx="45.8" cy="71.8" r="9.3" fill="#539B00"></circle><path fill="#FFF" d="M42 69c1.2 0 2.3.3 3.3.8 1.2-1.1 2.9-1.8 4.7-1.8 1.6 0 3.1.5 4.2 1.4-1.1-2-3.3-3.4-5.7-3.4-1.6 0-3.1.6-4.2 1.6-.7-.4-1.5-.6-2.3-.6-2.4 0-4.4 1.7-4.9 4 1.3-1.2 3-2 4.9-2z" opacity=".2"></path><path d="M46.8 79c-3.8 0-7-2-8.8-5h-.9c-3.5 0-6.5-2-8-4.9.1 4.9 4.1 8.9 9 8.9h.9c1.7 1.9 4.1 3 6.8 3 3.6 0 6.6-2 8.2-4.9-1.9 1.8-4.5 2.9-7.2 2.9z" opacity=".3"></path><ellipse cx="86.5" cy="92" opacity=".3" rx="7.5" ry="4"></ellipse><path fill="#825012" d="M88 68v24c0 .6-.7 1-1.5 1s-1.5-.4-1.5-1V68h3z"></path><circle cx="95.5" cy="66.5" r="6.5" fill="#539B00"></circle><circle cx="92" cy="58" r="9" fill="#539B00"></circle><path fill="#825012" d="M86 80.4c-2.6 0-3-.9-3-3.4v-8h-1v10c0 1.7 1.3 3 3 3h1v-1.6zM87 81.8c1.7 0 3-.4 3-2.1V70h1v10c0 1.7-1.3 3-3 3h-1v-1.2z"></path><path fill="#825012" d="M83 78.8c-1.7 0-2-1.3-2-2.1V67h-1v10c0 1.7 1.3 3 3 3v-1.2z"></path><circle cx="82" cy="68" r="9" fill="#539B00"></circle><circle cx="77" cy="64" r="6" fill="#539B00"></circle><path fill="#825012" d="M82 67.8c-1.7 0-3-.4-3-2.1V63h-1v3c0 1.7 1.3 3 3 3h1v-1.2z"></path><circle cx="81" cy="56" r="8" fill="#539B00"></circle><circle cx="85" cy="52" r="8" fill="#539B00"></circle><circle cx="91.5" cy="49.5" r="4.5" fill="#539B00"></circle><path fill="#FFF" d="M77.1 58c2.2 0 4.1 1.3 4.9 3.1.3-.1.7-.1 1.1-.1 1.8 0 3.4.9 4.4 2.2-.4-1.8-2-3.2-3.9-3.2h-.1c-.5-2.3-2.5-4-4.9-4-2 0-3.7 1.2-4.5 2.9.8-.6 1.9-.9 3-.9z" opacity=".2"></path><path fill="#825012" d="M85 55.4c.2.2.5.4.7.6h.3v-3c-.3 0-.7-.1-1-.2v2.6z"></path><path fill="#FFF" d="M85.5 48c2.4 0 4.3 1.9 4.5 4.2.5-.1 1-.2 1.5-.2 2.5 0 4.6 1.6 5.3 3.9.1-.4.2-.9.2-1.4 0-2.5-2-4.5-4.5-4.5-.5 0-1 .1-1.5.3-.1-1.8-1.6-3.3-3.5-3.3-1 0-1.9.4-2.5 1h.5z" opacity=".2"></path><path d="M100.9 59.4c-1.7 1.9-4.1 3.1-6.8 3.1h-.6c1 1.1 1.6 2.4 1.7 3.9 2.9-1.1 5.2-3.8 5.7-7zM98.5 69.7c.3.7.4 1.5.5 2.3 1.7-1.1 2.9-2.9 3-5-.8 1.3-2.1 2.2-3.5 2.7zM76.7 58c-1.6-1.4-2.7-3.5-2.7-5.9-.6 1.1-1 2.5-1 3.9 0 1.1.2 2.1.6 3.1.9-.7 2-1 3.1-1.1z" opacity=".3"></path><path fill="#825012" d="M92 59.6c0 1.7-1.3 2.1-3 2.1V63h1c1.7 0 3-1.3 3-3v-2c-.3 0-.7-.1-1-.2v1.8z"></path><circle cx="89.8" cy="70.8" r="9.3" fill="#539B00"></circle><path fill="#FFF" d="M86 68c1.2 0 2.3.3 3.3.8 1.2-1.1 2.9-1.8 4.7-1.8 1.6 0 3.1.5 4.2 1.4-1.1-2-3.3-3.4-5.7-3.4-1.6 0-3.1.6-4.2 1.6-.7-.4-1.5-.6-2.3-.6-2.4 0-4.4 1.7-4.9 4 1.3-1.2 3-2 4.9-2z" opacity=".2"></path><path d="M90.8 78c-3.8 0-7-2-8.8-5h-.9c-3.5 0-6.5-2-8-4.9.1 4.9 4.1 8.9 9 8.9h.9c1.7 1.9 4.1 3 6.8 3 3.6 0 6.6-2 8.2-4.9-1.9 1.8-4.5 2.9-7.2 2.9zM54.4 105.1l-5.7 2 4.1.2-2.5 1.7h5.8l3.4-.9-.6 2.8 3.6-.6 2.6-2.1 4.9 1.5 5.2-.7-1.6-1 1.8-.4-7.5-2.1z" opacity=".3"></path><path fill="#28896D" d="M56.7 83.6C61 83.1 63 75 63 75s.9 8 6.2 10.1c.1.7-1.9 1.4-3.6.6-.1 1.6 3.5 4.1 5.6 4.7.1.9-1.9 2.1-3.9 1.5.9 1.9 2.3 3.6 5.6 4.4-1.5.9-3.9.1-5.3 0 0 1.3 4.7 2.5 7.1 2.4-.4 1.2-2.7 2.5-4.7 2.4 0 1.4 4.7 2.6 5.9 3 .1 1.2-3.3 1.9-5.6 1.2-.1 1.4 2.4 2.7 3.6 3.3 0 1.1-7.6.7-8.9-1.5-1.4.5-2.4 3.5-5.1 3.3.4-.8 1.1-3.3-.2-3.9-1.1 1.6-5.8 2.7-7.7 1.8.5-.5 3.2-.9 2.4-2.7-2.4-.1-5.7-2.2-5.6-3.3.6.4 4.6 1 4.7 0-1.8-.1-2.9-1.6-3-2.7.6.3 4.6 1 4.7-.3-1.4-.5-3.1-1.5-3-2.7 1.2.1 3.7.1 3.9-1.2-1.5-.5-2.9-2.7-3-3.6 1.1.3 5.4.1 5.3-.9-1.9-.1-3.4-.9-3.3-2.1 2.4-.2 5-2.7 5-3.9-.8.5-2.7.1-3.4-1.3z"></path><path fill="#FFF" d="M73 96.3s-3 .1-5.6-2.4c-2.6-2.5-3.3-4.1-3.3-4.1s-.6.8-2.7 2.1-6.5 1.2-6.5 1.2 2.8 2.1 6.8.9c2-.6 1.8-1 1.8-1s2.8 2.4 3.8 2.8c4.1 1.4 5.7.5 5.7.5zM56.4 89.2c3.6-1.9 5.8-3.5 6.5-6.5-.2 1.4 2.8 5.3 5.6 7.4-2.1-.2-4.7-3.7-5.9-3.6-.2 1.1-3.7 2.5-6.2 2.7z" opacity=".2"></path><path fill="#FFF" d="M58.1 83.9c3.6-1.9 4.2-4.4 4.9-7.5-.2 1.4 1.6 5.9 4.4 8-2.1-.2-3.9-3.2-4.7-3.9-.3 1.2-2.2 3.2-4.6 3.4zM52.8 97.1s4.4-.1 7.8-1.7c1-.1 2.5 3.1 3.3 3.3.8-.2 1.3-.4 2.1-1 .7 3.1 6.1 5.7 9.1 6.6-5.5 0-9.5-3.6-10.1-4.7-.7.5-.8 2.1-2.1 2.1-1-1.5-2.6-3.6-3-4.7-1-.3-5.4 1.2-7.1.1z" opacity=".2"></path><path fill="#FFF" d="M50.1 103.2c6.2.7 8.5-2.2 9.5-3.3-.6 4.3-7.6 5.5-9.5 3.3zM66.6 102.4c1.8 2.9 2.4 4.6 6.5 5.9-6.6.4-7.3-4.5-6.5-5.9zM60.7 109.5c.4.2 4.2-5.9 1.4-7-1.6.9-.2 4-1.4 7z" opacity=".2"></path><path d="m65.1 84.4-1.6-1.3s1.3 1.6 2.1 2.6c1.7.8 3.7.1 3.6-.6 0 0-2.5.6-4.1-.7zM67.2 106.8c-2-2-2.4-5.1-2.4-5.1s-1.2 4.1-2.1 6c-.6 1.2-1.2 2.2-2.7 2.6v.1c2.8.2 3.7-2.8 5.1-3.3 1.3 2.2 8.9 2.6 8.9 1.5-.1-.1-4.8.2-6.8-1.8zM70.6 99.6c-2-.1-4.7-3.8-4.7-3.8s-1.4.7-2.2.1-1.5-1.2-1.5-1.2.7 3.5 1.8 3.3 1.7-.5 2.1-1c.5 2.6 3.9 4.1 3.9 4.1 2 .1 4.3-1.1 4.7-2.4.1 0-2.1 1-4.1.9zM58.5 91c.6 0 1.2 0 1.7-.1 1.5-.2 4.1-1.6 4.1-1.6l-2 .2.8-1.7s-2.3 1.9-4.3 2.1c-2 .3-3.5-1-3.5-1-.2 1.2 1.4 2 3.2 2.1zM55.2 99.3c-.1 1.3-4.1.6-4.7.3 2.9 1.9 8.4-.3 8.4-.3l-2.6.1 3-1.5s-6.7.4-7-1.3c-.2 1.2 1.5 2.2 2.9 2.7z" opacity=".3"></path><path d="M58.1 100.7s-2.1.6-3.6.6c-1.4 0-3.8-1.3-4-1.7.1 1.1 1.2 2.5 3 2.6 3.4.4 4.6-1.5 4.6-1.5zM60.7 107c0-1.2-.3-8.2-.3-8.2s-.2 4.2-3.9 7.8c-1.3 1.2-4.6 1.6-4.6 1.6 1.9.9 6.6-.2 7.7-1.8 1 .5.8 2.1.5 3.2.3-.7.6-1.8.6-2.6zM67.8 113.4l-3.5 1.3 2.5.1-1.5 1h3.5l2.1-.5-.3 1.7 2.1-.4 1.6-1.3 3 1 3.2-.5-1-.6 1.1-.3-4.5-1.2z" opacity=".3"></path><path fill="#28896D" d="M69.2 100.3C71.8 100 73 95 73 95s.5 4.9 3.8 6.2c.1.5-1.1.9-2.2.4-.1 1 2.1 2.5 3.4 2.9 0 .5-1.2 1.3-2.4.9.5 1.2 1.4 2.2 3.4 2.7-.9.5-2.4 0-3.3 0 0 .8 2.9 1.5 4.4 1.5-.3.8-1.7 1.5-2.9 1.5 0 .9 2.9 1.6 3.6 1.8.1.7-2 1.2-3.4.7 0 .9 1.5 1.6 2.2 2 0 .7-4.7.5-5.4-.9-.9.3-1.4 2.2-3.1 2 .2-.5.7-2-.1-2.4-.7 1-3.5 1.6-4.7 1.1.3-.3 2-.5 1.5-1.6-1.5 0-3.5-1.4-3.4-2 .4.3 2.8.6 2.9 0-1.1-.1-1.8-1-1.8-1.6.4.2 2.8.6 2.9-.2-.9-.3-1.9-.9-1.8-1.6.7.1 2.3 0 2.4-.7-.9-.3-1.8-1.7-1.8-2.2.7.2 3.3 0 3.3-.5-1.1-.1-2.1-.5-2-1.3 1.5-.1 3.1-1.7 3.1-2.4-.8 0-2-.2-2.4-1z"></path><path fill="#FFF" d="M79.2 108.1s-1.9.1-3.4-1.5c-1.6-1.5-2-2.5-2-2.5s-.4.5-1.6 1.3c-1.3.8-4 .7-4 .7s1.7 1.3 4.2.5c1.2-.4 1.1-.6 1.1-.6s1.7 1.5 2.4 1.7c2.3.9 3.3.4 3.3.4zM69 103.7c2.2-1.2 3.5-2.1 4-4-.1.9 1.7 3.3 3.4 4.5-1.3-.1-2.9-2.3-3.6-2.2-.1.7-2.3 1.6-3.8 1.7z" opacity=".2"></path><path fill="#FFF" d="M70 100.5c2.2-1.2 2.5-2.7 3-4.6-.1.9 1 3.6 2.7 4.9-1.3-.1-2.4-1.9-2.9-2.4-.1.7-1.3 1.9-2.8 2.1zM66.8 108.6s2.7 0 4.8-1c.6 0 1.5 1.9 2 2 .5-.1.8-.3 1.3-.6.4 1.9 3.7 3.5 5.6 4-3.4 0-5.8-2.2-6.2-2.9-.4.3-.5 1.3-1.3 1.3-.6-.9-1.6-2.2-1.8-2.9-.7-.2-3.4.7-4.4.1z" opacity=".2"></path><path fill="#FFF" d="M65.2 112.3c3.8.4 5.2-1.3 5.8-2-.4 2.6-4.7 3.3-5.8 2zM75.2 111.8c1.1 1.8 1.5 2.8 4 3.6-4 .2-4.4-2.8-4-3.6zM71.6 116.1c.2.1 2.6-3.6.8-4.3-.9.6 0 2.5-.8 4.3z" opacity=".2"></path><path d="m74.3 100.8-1-.8s.8 1 1.3 1.6c1 .5 2.2.1 2.2-.4 0 0-1.5.3-2.5-.4zM75.6 114.5c-1.2-1.2-1.5-3.1-1.5-3.1s-.7 2.5-1.3 3.7c-.4.7-.7 1.3-1.7 1.6v.1c1.7.1 2.3-1.7 3.1-2 .8 1.4 5.4 1.6 5.4.9.1-.2-2.8 0-4-1.2zM77.7 110.1c-1.2-.1-2.9-2.3-2.9-2.3s-.8.4-1.3.1c-.5-.3-.9-.7-.9-.7s.4 2.1 1.1 2c.7-.1 1-.3 1.3-.6.3 1.6 2.4 2.5 2.4 2.5 1.2.1 2.6-.7 2.9-1.5 0-.1-1.4.5-2.6.5zM70.3 104.8c.4 0 .7 0 1.1-.1.9-.1 2.5-1 2.5-1l-1.2.1.5-1.1s-1.4 1.1-2.6 1.3c-1.2.2-2.2-.6-2.2-.6-.2.9.8 1.3 1.9 1.4zM68.3 109.9c-.1.8-2.5.4-2.9.2 1.8 1.2 5.2-.2 5.2-.2H69l1.9-.9s-4.1.2-4.3-.8c-.2.8.8 1.4 1.7 1.7z" opacity=".3"></path><path d="M70 110.8s-1.3.4-2.2.4c-.8 0-2.4-.8-2.4-1 .1.7.7 1.5 1.8 1.6 2.1.1 2.8-1 2.8-1zM71.7 114.6c0-.7-.2-5-.2-5s-.1 2.5-2.4 4.8c-.8.7-2.8 1-2.8 1 1.2.5 4-.1 4.7-1.1.6.3.5 1.3.3 1.9.2-.5.4-1.1.4-1.6z" opacity=".3"></path></svg>